<?xml version="1.0" encoding="utf-8"?>
<!-- Generator: Adobe Illustrator 16.0.0, SVG Export Plug-In . SVG Version: 6.00 Build 0)  -->
<!DOCTYPE svg PUBLIC "-//W3C//DTD SVG 1.1//EN" "http://www.w3.org/Graphics/SVG/1.1/DTD/svg11.dtd">
<svg version="1.1" id="Layer_1" xmlns="http://www.w3.org/2000/svg" xmlns:xlink="http://www.w3.org/1999/xlink" x="0px" y="0px"
	 width="45px" height="16.11px" viewBox="0 0 45 16.11" enable-background="new 0 0 45 16.11" xml:space="preserve">
<path fill="#FFFFFF" d="M41.846,16.112L41.846,16.112c-1.742,0-3.154-1.412-3.154-3.153V3.185c0-1.742,1.412-3.154,3.153-3.154
	h0.001C43.588,0.031,45,1.443,45,3.185v9.774C45,14.7,43.588,16.112,41.846,16.112z M31.522,13.881c0,0-0.303-0.551-0.499-0.906
	c-0.094-0.17-0.067-0.465,0.094-0.744c0.589-1.028,2.054-3.573,2.875-4.914c0.203-0.331,0.838-0.369,1.084,0.088
	c0.696,1.288,1.908,3.323,1.908,3.323c0.871,1.508,0.354,3.437-1.154,4.308S32.394,15.389,31.522,13.881z M29.203,13.881
	c-0.87,1.508-2.799,2.025-4.307,1.154c-1.509-0.871-2.026-2.8-1.154-4.308l4.887-8.466c0.871-1.509,2.799-2.025,4.309-1.155
	c1.508,0.871,2.025,2.8,1.154,4.308L29.203,13.881z M20.878,13.881c-0.871,1.508-2.799,2.025-4.308,1.154
	c-1.508-0.871-2.024-2.8-1.154-4.308l4.887-8.466c0.871-1.509,2.799-2.025,4.308-1.155c1.508,0.871,2.024,2.8,1.153,4.308
	L20.878,13.881z M12.928,6.307h-1.734v6.652c0,1.742-1.412,3.153-3.153,3.153c-1.742,0-3.153-1.411-3.153-3.153V6.307H3.153
	C1.412,6.307,0,4.895,0,3.153V3.151C0,1.41,1.412-0.002,3.153-0.002h9.775c1.742,0,3.154,1.412,3.154,3.154v0.001
	C16.082,4.895,14.669,6.307,12.928,6.307z"/>
</svg>
